<svg width="111" height="22" viewBox="0 0 111 22" fill="none" xmlns="http://www.w3.org/2000/svg">
<path d="M9.64479 12.6241C9.64479 13.9534 9.17485 15.0167 8.23497 15.8142C7.30955 16.597 6.08771 16.9884 4.56945 16.9884C2.92105 16.9884 1.55461 16.6709 0.470142 16.0358V13.178C1.71367 14.0937 3.07288 14.5515 4.54776 14.5515C5.2129 14.5515 5.74791 14.389 6.15278 14.0641C6.55765 13.7244 6.76009 13.274 6.76009 12.7128C6.76009 12.4469 6.70948 12.2106 6.60826 12.0038C6.50704 11.7971 6.29738 11.5903 5.97927 11.3835C5.67561 11.1768 5.43703 11.0291 5.26351 10.9405C5.10446 10.8519 4.76466 10.6894 4.24411 10.4531C4.09951 10.3793 3.99107 10.3276 3.91877 10.298C3.38376 10.047 2.94997 9.82542 2.6174 9.63342C2.28483 9.42665 1.92334 9.15343 1.53293 8.81374C1.14252 8.47405 0.846092 8.06791 0.643657 7.5953C0.455682 7.12269 0.361694 6.58362 0.361694 5.97809C0.361694 4.70796 0.817173 3.6889 1.72813 2.92091C2.65355 2.15292 3.87539 1.76893 5.39365 1.76893C6.76732 1.76893 7.95301 2.01261 8.95072 2.49999V5.20272C7.86625 4.53811 6.70948 4.20581 5.48041 4.20581C4.80081 4.20581 4.2658 4.36089 3.87539 4.67103C3.49944 4.98118 3.31146 5.37995 3.31146 5.86732C3.31146 6.3547 3.5139 6.76085 3.91877 7.08577C4.3381 7.39592 4.95986 7.74299 5.78406 8.12698C6.36245 8.39282 6.83238 8.62913 7.19388 8.83589C7.55537 9.02789 7.94578 9.30112 8.36511 9.65557C8.7989 10.01 9.11701 10.4383 9.31944 10.9405C9.53634 11.4279 9.64479 11.9891 9.64479 12.6241Z" fill="black"/>
<path d="M14.5375 21.0425H11.9347V5.57933H14.5375V7.3073C15.3183 6.05194 16.4389 5.42425 17.8993 5.42425C19.3308 5.42425 20.4659 5.94855 21.3046 6.99715C22.1577 8.04575 22.5842 9.42665 22.5842 11.1399C22.5842 12.8235 22.1577 14.2192 21.3046 15.3269C20.4659 16.4198 19.3236 16.9662 17.8776 16.9662C16.4027 16.9662 15.2894 16.3533 14.5375 15.1275V21.0425ZM15.3617 8.5479C14.8122 9.12389 14.5375 9.98049 14.5375 11.1177C14.5375 12.2549 14.805 13.1337 15.34 13.754C15.875 14.3743 16.5184 14.6844 17.2703 14.6844C18.0511 14.6844 18.6874 14.3817 19.179 13.7761C19.6706 13.1558 19.9164 12.2918 19.9164 11.1842C19.9164 10.0765 19.6706 9.21989 19.179 8.61436C18.6874 7.99406 18.0656 7.68391 17.3137 7.68391C16.5618 7.68391 15.9111 7.97191 15.3617 8.5479Z" fill="black"/>
<path d="M27.524 16.8112H24.9213V5.57933H27.524V16.8112ZM27.7843 2.21199C27.7843 2.66983 27.6325 3.05383 27.3288 3.36398C27.0252 3.67413 26.6564 3.8292 26.2227 3.8292C25.7889 3.8292 25.4201 3.67413 25.1165 3.36398C24.8128 3.05383 24.661 2.66983 24.661 2.21199C24.661 1.76893 24.8128 1.39232 25.1165 1.08217C25.4201 0.772018 25.7889 0.616943 26.2227 0.616943C26.6564 0.616943 27.0252 0.772018 27.3288 1.08217C27.6325 1.39232 27.7843 1.76893 27.7843 2.21199Z" fill="black"/>
<path d="M39.9904 16.8112H37.3876V9.89926C37.3876 9.16081 37.2141 8.60697 36.8671 8.23775C36.5201 7.85376 36.0501 7.66176 35.4573 7.66176C34.7777 7.66176 34.2065 7.93498 33.7438 8.48144C33.2811 9.01312 33.0498 9.78111 33.0498 10.7854V16.8112H30.447V5.57933H33.0498V7.50668C33.6715 6.13317 34.7994 5.44641 36.4333 5.44641C37.5322 5.44641 38.3998 5.78609 39.036 6.46547C39.6723 7.14484 39.9904 8.10483 39.9904 9.34542V16.8112Z" fill="black"/>
<path d="M48.3501 7.57314H46.1595V16.8112H43.5568V7.57314H41.9518V5.57933H43.5568V4.91472C43.5568 3.65936 43.8966 2.67722 44.5762 1.96831C45.2558 1.25939 46.1957 0.904938 47.3958 0.904938C47.9453 0.904938 48.4224 0.971398 48.8273 1.10432V3.34182C48.4514 3.19413 48.0899 3.12029 47.7428 3.12029C46.6873 3.12029 46.1595 3.72582 46.1595 4.93688V5.57933H48.3501V7.57314Z" fill="black"/>
<path d="M52.7931 16.8112H50.1904V1.14863H52.7931V16.8112Z" fill="black"/>
<path d="M65.151 16.8112H62.5266V14.9724C61.9482 16.2721 60.8203 16.9219 59.143 16.9219C58.0296 16.9219 57.1621 16.597 56.5403 15.9472C55.9185 15.2973 55.6076 14.3743 55.6076 13.178V5.57933H58.2104V12.5577C58.2104 13.2666 58.3767 13.8057 58.7092 14.1749C59.0563 14.5441 59.5262 14.7287 60.119 14.7287C60.8709 14.7287 61.4566 14.4703 61.8759 13.9534C62.3097 13.4364 62.5266 12.6537 62.5266 11.6051V5.57933H65.151V16.8112Z" fill="black"/>
<path d="M76.3738 16.1909C75.6074 16.6782 74.5013 16.9219 73.0553 16.9219C71.3057 16.9219 69.9248 16.3902 68.9126 15.3269C67.9004 14.2635 67.3943 12.89 67.3943 11.2063C67.3943 9.41927 67.8715 8.01621 68.8258 6.99715C69.7802 5.97809 70.9731 5.46856 72.4046 5.46856C73.8361 5.46856 74.9712 5.91163 75.8099 6.79777C76.6485 7.68391 77.0678 8.9762 77.0678 10.6746C77.0678 11.0882 77.0172 11.6199 76.916 12.2697H70.0188C70.2067 13.082 70.5972 13.7023 71.19 14.1306C71.7973 14.5589 72.5492 14.773 73.4457 14.773C74.6025 14.773 75.5785 14.4777 76.3738 13.8869V16.1909ZM72.4697 7.55099C71.8479 7.55099 71.3057 7.78729 70.843 8.2599C70.3947 8.71774 70.1055 9.38973 69.9754 10.2759H74.5952V9.94357C74.5663 9.21989 74.3711 8.6439 74.0096 8.2156C73.6626 7.77253 73.1493 7.55099 72.4697 7.55099Z" fill="black"/>
<path d="M89.0035 16.8112H86.4007V9.89926C86.4007 9.16081 86.2272 8.60697 85.8802 8.23775C85.5332 7.85376 85.0632 7.66176 84.4704 7.66176C83.7908 7.66176 83.2196 7.93498 82.7569 8.48144C82.2942 9.01312 82.0629 9.78111 82.0629 10.7854V16.8112H79.4601V5.57933H82.0629V7.50668C82.6846 6.13317 83.8125 5.44641 85.4464 5.44641C86.5453 5.44641 87.4129 5.78609 88.0491 6.46547C88.6854 7.14484 89.0035 8.10483 89.0035 9.34542V16.8112Z" fill="black"/>
<path d="M99.684 16.3238C98.9177 16.7816 97.9633 17.0105 96.821 17.0105C95.1292 17.0105 93.7556 16.4641 92.7 15.3712C91.6589 14.2783 91.1384 12.8974 91.1384 11.2285C91.1528 9.58911 91.6734 8.20821 92.7 7.08577C93.7411 5.96332 95.1582 5.4021 96.9511 5.4021C98.0212 5.4021 98.9321 5.60887 99.684 6.0224V8.37067C98.961 7.89806 98.1368 7.66176 97.2114 7.66176C96.1992 7.66176 95.3823 7.98668 94.7605 8.63651C94.1387 9.28635 93.8206 10.1503 93.8062 11.2285C93.8351 12.2918 94.146 13.1484 94.7388 13.7983C95.3461 14.4481 96.1631 14.773 97.1897 14.773C98.0862 14.773 98.9177 14.522 99.684 14.0198V16.3238Z" fill="black"/>
<path d="M110.306 16.1909C109.54 16.6782 108.433 16.9219 106.987 16.9219C105.238 16.9219 103.857 16.3902 102.845 15.3269C101.833 14.2635 101.326 12.89 101.326 11.2063C101.326 9.41927 101.804 8.01621 102.758 6.99715C103.712 5.97809 104.905 5.46856 106.337 5.46856C107.768 5.46856 108.903 5.91163 109.742 6.79777C110.581 7.68391 111 8.9762 111 10.6746C111 11.0882 110.949 11.6199 110.848 12.2697H103.951C104.139 13.082 104.529 13.7023 105.122 14.1306C105.729 14.5589 106.481 14.773 107.378 14.773C108.535 14.773 109.511 14.4777 110.306 13.8869V16.1909ZM106.402 7.55099C105.78 7.55099 105.238 7.78729 104.775 8.2599C104.327 8.71774 104.038 9.38973 103.908 10.2759H108.527V9.94357C108.498 9.21989 108.303 8.6439 107.942 8.2156C107.595 7.77253 107.081 7.55099 106.402 7.55099Z" fill="black"/>
</svg>
